HIERARCHY
ROOT Hips
{
	OFFSET 0.000003 96.368652 -0.035689
	CHANNELS 6 Xposition Yposition Zposition Xrotation Yrotation Zrotation
	JOINT Spine
	{
		OFFSET 0.000010 9.226303 1.577100
		CHANNELS 6 Xposition Yposition Zposition Xrotation Yrotation Zrotation
		JOINT Spine1
		{
			OFFSET 0.000000 16.253998 -0.165600
			CHANNELS 6 Xposition Yposition Zposition Xrotation Yrotation Zrotation
			JOINT Spine2
			{
				OFFSET -0.000000 13.639587 -1.292299
				CHANNELS 6 Xposition Yposition Zposition Xrotation Yrotation Zrotation
				JOINT Neck
				{
					OFFSET 0.000000 13.877411 -4.354199
					CHANNELS 6 Xposition Yposition Zposition Xrotation Yrotation Zrotation
					JOINT Neck1
					{
						OFFSET 0.000000 4.339996 0.926899
						CHANNELS 6 Xposition Yposition Zposition Xrotation Yrotation Zrotation
						JOINT Head
						{
							OFFSET 0.000000 4.026611 0.858500
							CHANNELS 6 Xposition Yposition Zposition Xrotation Yrotation Zrotation
							JOINT HeadTop_End
							{
								OFFSET 0.000000 21.748810 0.000000
								CHANNELS 6 Xposition Yposition Zposition Xrotation Yrotation Zrotation
								End Site
								{
									OFFSET 0.000000 11.825378 0.000000
								}
							}
							JOINT L_Eye
							{
								OFFSET 3.005700 7.261795 7.955601
								CHANNELS 6 Xposition Yposition Zposition Xrotation Yrotation Zrotation
								End Site
								{
									OFFSET 0.000000 11.825378 0.000000
								}
							}
							JOINT R_Eye
							{
								OFFSET -3.005700 7.261795 7.955601
								CHANNELS 6 Xposition Yposition Zposition Xrotation Yrotation Zrotation
								End Site
								{
									OFFSET 0.000000 11.825378 0.000000
								}
							}
							JOINT Jaw
							{
								OFFSET 0.000000 2.030289 2.456200
								CHANNELS 6 Xposition Yposition Zposition Xrotation Yrotation Zrotation
								End Site
								{
									OFFSET 0.000000 11.825378 0.000000
								}
							}
						}
					}
				}
				JOINT L_Shoulder
				{
					OFFSET 6.144200 10.187012 -3.793198
					CHANNELS 6 Xposition Yposition Zposition Xrotation Yrotation Zrotation
					JOINT L_Arm
					{
						OFFSET 12.319103 -1.112991 -1.793500
						CHANNELS 3 Xrotation Yrotation Zrotation
						JOINT L_ForeArm
						{
							OFFSET 27.687006 -0.000015 -0.000000
							CHANNELS 3 Xrotation Yrotation Zrotation
							JOINT L_Hand
							{
								OFFSET 27.873787 0.000031 -0.000000
								CHANNELS 3 Xrotation Yrotation Zrotation
								JOINT L_HandThumb1
								{
									OFFSET 2.421021 -1.395554 2.392360
									CHANNELS 6 Xposition Yposition Zposition Xrotation Yrotation Zrotation
									JOINT L_HandThumb2
									{
										OFFSET 3.496521 -2.018692 2.018717
										CHANNELS 6 Xposition Yposition Zposition Xrotation Yrotation Zrotation
										JOINT L_HandThumb3
										{
											OFFSET 4.011398 -2.315994 2.315975
											CHANNELS 6 Xposition Yposition Zposition Xrotation Yrotation Zrotation
											JOINT L_HandThumb4
											{
												OFFSET 2.095787 -1.210007 1.209984
												CHANNELS 6 Xposition Yposition Zposition Xrotation Yrotation Zrotation
												End Site
												{
													OFFSET 1.877617 -1.197205 1.536803
												}
											}
										}
									}
								}
								JOINT L_HandIndex1
								{
									OFFSET 10.514771 -0.231369 2.264849
									CHANNELS 6 Xposition Yposition Zposition Xrotation Yrotation Zrotation
									JOINT L_HandIndex2
									{
										OFFSET 5.549301 0.000000 0.000000
										CHANNELS 3 Xrotation Yrotation Zrotation
										JOINT L_HandIndex3
										{
											OFFSET 3.391098 0.000000 0.000001
											CHANNELS 3 Xrotation Yrotation Zrotation
											JOINT L_HandIndex4
											{
												OFFSET 2.334351 0.000000 0.000011
												CHANNELS 6 Xposition Yposition Zposition Xrotation Yrotation Zrotation
												End Site
												{
													OFFSET 2.334351 0.000000 0.000101
												}
											}
										}
									}
								}
								JOINT L_HandMiddle1
								{
									OFFSET 10.490761 -0.000015 0.000002
									CHANNELS 6 Xposition Yposition Zposition Xrotation Yrotation Zrotation
									JOINT L_HandMiddle2
									{
										OFFSET 5.792099 0.000000 0.000000
										CHANNELS 3 Xrotation Yrotation Zrotation
										JOINT L_HandMiddle3
										{
											OFFSET 3.713196 0.000000 0.000000
											CHANNELS 3 Xrotation Yrotation Zrotation
											JOINT L_HandMiddle4
											{
												OFFSET 2.752045 -0.000031 0.000022
												CHANNELS 6 Xposition Yposition Zposition Xrotation Yrotation Zrotation
												End Site
												{
													OFFSET 2.752045 0.000031 -0.003599
												}
											}
										}
									}
								}
								JOINT L_HandRing1
								{
									OFFSET 10.240753 -0.046051 -2.314147
									CHANNELS 6 Xposition Yposition Zposition Xrotation Yrotation Zrotation
									JOINT L_HandRing2
									{
										OFFSET 5.445206 -0.000015 0.000676
										CHANNELS 3 Xrotation Yrotation Zrotation
										JOINT L_HandRing3
										{
											OFFSET 3.713196 0.000015 -0.000674
											CHANNELS 3 Xrotation Yrotation Zrotation
											JOINT L_HandRing4
											{
												OFFSET 2.280716 0.000000 -0.000046
												CHANNELS 3 Xrotation Yrotation Zrotation
												End Site
												{
													OFFSET 2.280716 -0.000061 0.003501
												}
											}
										}
									}
								}
								JOINT L_HandPinky1
								{
									OFFSET 9.820259 -0.209747 -4.418469
									CHANNELS 6 Xposition Yposition Zposition Xrotation Yrotation Zrotation
									JOINT L_HandPinky2
									{
										OFFSET 3.676300 0.000000 0.000000
										CHANNELS 3 Xrotation Yrotation Zrotation
										JOINT L_HandPinky3
										{
											OFFSET 2.811295 0.000000 0.000001
											CHANNELS 3 Xrotation Yrotation Zrotation
											JOINT L_HandPinky4
											{
												OFFSET 1.659546 0.000000 0.000000
												CHANNELS 3 Xrotation Yrotation Zrotation
												End Site
												{
													OFFSET 1.659546 0.000015 -0.001891
												}
											}
										}
									}
								}
							}
						}
					}
				}
				JOINT R_Shoulder
				{
					OFFSET -6.140200 10.187012 -3.793198
					CHANNELS 6 Xposition Yposition Zposition Xrotation Yrotation Zrotation
					JOINT R_Arm
					{
						OFFSET -12.323095 -1.113007 -1.793499
						CHANNELS 3 Xrotation Yrotation Zrotation
						JOINT R_ForeArm
						{
							OFFSET -27.687002 0.000015 -0.000002
							CHANNELS 3 Xrotation Yrotation Zrotation
							JOINT R_Hand
							{
								OFFSET -27.873795 -0.000015 0.000000
								CHANNELS 3 Xrotation Yrotation Zrotation
								JOINT R_HandPinky1
								{
									OFFSET -9.791023 -0.212921 -4.378341
									CHANNELS 6 Xposition Yposition Zposition Xrotation Yrotation Zrotation
									JOINT R_HandPinky2
									{
										OFFSET -3.652802 0.000000 0.000000
										CHANNELS 3 Xrotation Yrotation Zrotation
										JOINT R_HandPinky3
										{
											OFFSET -2.781998 0.000000 0.000000
											CHANNELS 3 Xrotation Yrotation Zrotation
											JOINT R_HandPinky4
											{
												OFFSET -1.612122 0.000198 0.000004
												CHANNELS 3 Xrotation Yrotation Zrotation
												End Site
												{
													OFFSET -1.612106 0.000320 -0.007100
												}
											}
										}
									}
								}
								JOINT R_HandRing1
								{
									OFFSET -10.391914 0.105164 -2.349891
									CHANNELS 6 Xposition Yposition Zposition Xrotation Yrotation Zrotation
									JOINT R_HandRing2
									{
										OFFSET -5.401306 0.000000 0.000000
										CHANNELS 3 Xrotation Yrotation Zrotation
										JOINT R_HandRing3
										{
											OFFSET -3.391602 0.000000 0.000000
											CHANNELS 3 Xrotation Yrotation Zrotation
											JOINT R_HandRing4
											{
												OFFSET -2.353172 0.000305 -0.000032
												CHANNELS 3 Xrotation Yrotation Zrotation
												End Site
												{
													OFFSET -2.353180 0.000275 0.001400
												}
											}
										}
									}
								}
								JOINT R_HandMiddle1
								{
									OFFSET -10.779236 0.000000 0.000001
									CHANNELS 6 Xposition Yposition Zposition Xrotation Yrotation Zrotation
									JOINT R_HandMiddle2
									{
										OFFSET -5.616806 0.000000 0.000000
										CHANNELS 3 Xrotation Yrotation Zrotation
										JOINT R_HandMiddle3
										{
											OFFSET -3.736397 0.000000 0.000000
											CHANNELS 3 Xrotation Yrotation Zrotation
											JOINT R_HandMiddle4
											{
												OFFSET -2.691521 0.000336 -0.000028
												CHANNELS 3 Xrotation Yrotation Zrotation
												End Site
												{
													OFFSET -2.691513 0.000214 0.009200
												}
											}
										}
									}
								}
								JOINT R_HandIndex1
								{
									OFFSET -10.577324 -0.175369 2.287349
									CHANNELS 6 Xposition Yposition Zposition Xrotation Yrotation Zrotation
									JOINT R_HandIndex2
									{
										OFFSET -5.376801 0.000000 0.000001
										CHANNELS 3 Xrotation Yrotation Zrotation
										JOINT R_HandIndex3
										{
											OFFSET -3.385498 0.000000 0.000001
											CHANNELS 3 Xrotation Yrotation Zrotation
											JOINT R_HandIndex4
											{
												OFFSET -2.363556 0.000305 0.000042
												CHANNELS 3 Xrotation Yrotation Zrotation
												End Site
												{
													OFFSET -2.363548 0.000381 -0.006501
												}
											}
										}
									}
								}
								JOINT R_HandThumb1
								{
									OFFSET -2.570442 -1.245102 2.319054
									CHANNELS 6 Xposition Yposition Zposition Xrotation Yrotation Zrotation
									JOINT R_HandThumb2
									{
										OFFSET -3.518791 -2.031555 2.031563
										CHANNELS 6 Xposition Yposition Zposition Xrotation Yrotation Zrotation
										JOINT R_HandThumb3
										{
											OFFSET -3.945267 -2.277756 2.277756
											CHANNELS 6 Xposition Yposition Zposition Xrotation Yrotation Zrotation
											JOINT R_HandThumb4
											{
												OFFSET -2.055496 -1.186386 1.186664
												CHANNELS 3 Xrotation Yrotation Zrotation
												End Site
												{
													OFFSET -1.840202 -1.174805 1.508071
												}
											}
										}
									}
								}
							}
						}
					}
				}
			}
		}
	}
	JOINT L_UpLeg
	{
		OFFSET 9.633796 -3.273308 -0.000000
		CHANNELS 6 Xposition Yposition Zposition Xrotation Yrotation Zrotation
		JOINT L_Leg
		{
			OFFSET -0.006490 -41.762173 -0.553830
			CHANNELS 3 Xrotation Yrotation Zrotation
			JOINT L_Foot
			{
				OFFSET 0.006493 -39.146984 -2.021915
				CHANNELS 3 Xrotation Yrotation Zrotation
				JOINT L_ToeBase
				{
					OFFSET -0.183300 -12.185708 8.282301
					CHANNELS 6 Xposition Yposition Zposition Xrotation Yrotation Zrotation
					JOINT L_Toe_End
					{
						OFFSET -0.094684 -0.116787 6.663326
						CHANNELS 3 Xrotation Yrotation Zrotation
						End Site
						{
							OFFSET -0.094684 -0.116787 6.663328
						}
					}
				}
			}
		}
	}
	JOINT R_UpLeg
	{
		OFFSET -9.633803 -3.273293 0.000000
		CHANNELS 6 Xposition Yposition Zposition Xrotation Yrotation Zrotation
		JOINT R_Leg
		{
			OFFSET -0.006491 -41.762146 -0.555884
			CHANNELS 3 Xrotation Yrotation Zrotation
			JOINT R_Foot
			{
				OFFSET 0.006493 -39.147087 -2.019920
				CHANNELS 3 Xrotation Yrotation Zrotation
				JOINT R_ToeBase
				{
					OFFSET -0.183299 -12.185700 8.282300
					CHANNELS 6 Xposition Yposition Zposition Xrotation Yrotation Zrotation
					JOINT R_Toe_End
					{
						OFFSET 0.094687 -0.116863 6.675869
						CHANNELS 3 Xrotation Yrotation Zrotation
						End Site
						{
							OFFSET 0.094687 -0.116863 6.675869
						}
					}
				}
			}
		}
	}
}
MOTION
Frames: 4
Frame Time: 0.033333
0.385286 86.923599 -0.524243 0.984848 -47.056117 -0.437443 0.000011 9.226284 1.577101 4.331271 2.997704 -2.334162 0.000000 16.253990 -0.165599 -0.335510 0.577850 1.007866 -0.000000 13.639581 -1.292297 -0.351096 0.597514 0.995541 0.000001 13.877404 -4.354197 9.262849 3.024320 5.079904 -0.000002 4.339996 0.926898 0.000001 -0.000000 0.000001 0.000001 4.026613 0.858500 12.192381 24.039112 -4.210073 0.000005 21.748810 0.000001 0.000000 0.000001 0.000000 3.005706 7.261795 7.955601 0.000000 0.000001 0.000000 -3.005695 7.261795 7.955602 0.000000 0.000001 0.000000 0.000005 2.030289 2.456203 0.000000 0.000001 0.000000 6.144200 10.186991 -3.793197 0.433137 -1.620112 16.464478 -41.046353 -5.683289 -58.448319 -0.002509 -91.469702 -0.002492 -112.000793 -6.069147 18.689371 2.421033 -1.395557 2.392360 18.600984 5.613091 -13.680354 3.496526 -2.018694 2.018731 12.077339 9.726592 9.523354 4.011410 -2.316005 2.315992 3.387234 2.053772 7.492352 2.095767 -1.210008 1.209985 -0.000001 -0.000003 -0.000001 10.514769 -0.231371 2.264851 0.367749 2.224291 -18.773478 0.520610 2.631068 -22.380682 0.131308 1.341035 -11.184351 2.334343 0.000013 -0.000002 -0.000000 0.000001 -0.000000 10.490770 -0.000018 0.000005 0.367124 2.222465 -18.757480 0.521333 2.632857 -22.396689 0.131315 1.341020 -11.184341 2.752049 -0.000048 0.000019 -0.000000 0.000000 -0.000002 10.240752 -0.046056 -2.314143 0.370035 2.231014 -18.773371 0.516637 2.614344 -22.380839 0.131069 1.350253 -11.184070 -0.000001 0.000002 0.000003 9.820272 -0.209750 -4.418458 1.661703 6.067765 -18.356632 0.525573 -1.427745 -22.853813 0.131315 1.341026 -11.184350 0.000002 -0.000001 -0.000001 -6.140199 10.186990 -3.793198 0.004822 -1.454350 -6.596729 -43.080219 42.379220 70.016488 0.000097 113.672455 -0.000100 -63.002519 -19.425495 -19.247577 -9.791033 -0.212903 -4.378360 3.871380 -6.233301 63.656318 8.493857 -6.775874 102.876057 2.600028 -5.425008 51.193439 -0.000003 -0.000001 0.000003 -10.391918 0.105176 -2.349908 3.871382 -6.233301 63.656325 8.493856 -6.775873 102.876057 2.599281 -5.424478 51.193371 -0.000003 -0.000001 0.000002 -10.779235 -0.000000 -0.000019 3.871382 -6.233301 63.656325 8.493857 -6.775874 102.876057 2.599433 -5.424589 51.193289 0.000000 -0.000000 -0.000002 -10.577321 -0.175357 2.287337 3.871385 -6.233285 63.656325 8.493858 -6.775849 102.876057 2.600678 -5.425591 51.193504 -0.000000 0.000001 -0.000003 -2.570431 -1.245117 2.319026 39.964728 -9.056078 27.148856 -3.518824 -2.031544 2.031556 -6.839520 -22.258968 -45.814228 -3.945263 -2.277759 2.277750 -3.430037 -6.994781 -23.641679 -0.000000 0.000002 -0.000001 9.633794 -3.273320 -0.000001 -40.474898 16.713333 23.730852 38.705818 5.755945 6.507727 0.018701 1.207003 -13.632497 -0.183299 -12.185708 8.282297 -0.410125 0.000008 -0.000001 -0.000000 0.000001 -0.000000 -9.633805 -3.273306 0.000001 -27.278124 -20.040899 -19.639418 43.123567 -4.920260 -10.253102 -15.858302 -3.894203 21.306468 -0.183301 -12.185699 8.282302 -0.001748 0.000033 -0.000001 -0.000000 0.000001 -0.000000 
0.327228 86.875237 -0.564151 0.946906 -47.035381 -0.441073 0.000011 9.226295 1.577100 4.341067 2.983776 -2.357883 0.000000 16.253990 -0.165599 -0.325710 0.574826 0.996445 0.000000 13.639582 -1.292298 -0.341144 0.594437 0.984238 -0.000001 13.877381 -4.354200 9.279469 3.036782 5.032656 -0.000001 4.339996 0.926903 -0.000000 0.000001 -0.000000 -0.000000 4.026623 0.858502 12.164622 24.030352 -4.184203 0.000000 21.748810 0.000003 0.000001 -0.000000 0.000000 3.005703 7.261810 7.955597 0.000001 -0.000000 0.000000 -3.005699 7.261795 7.955599 0.000001 -0.000000 0.000000 -0.000000 2.030273 2.456204 0.000001 -0.000000 0.000000 6.144202 10.186966 -3.793200 0.442624 -1.640900 16.317681 -41.063879 -5.738246 -58.238223 -0.002447 -91.351724 -0.002541 -112.094189 -6.133439 18.583864 2.421025 -1.395555 2.392357 18.600982 5.613088 -13.680355 3.496503 -2.018688 2.018712 12.077339 9.726583 9.523355 4.011401 -2.315997 2.315990 3.387235 2.053774 7.492348 2.095782 -1.210018 1.209992 0.000001 0.000002 0.000002 10.514780 -0.231392 2.264850 0.367748 2.224291 -18.773480 0.520608 2.631070 -22.380681 0.131304 1.341035 -11.184352 2.334332 0.000014 0.000005 -0.000001 -0.000000 0.000001 10.490770 -0.000016 -0.000002 0.367125 2.222467 -18.757482 0.521333 2.632861 -22.396691 0.131311 1.341020 -11.184346 2.752058 -0.000041 0.000027 0.000003 0.000002 0.000001 10.240756 -0.046071 -2.314144 0.370038 2.231012 -18.773374 0.516638 2.614334 -22.380841 0.131066 1.350255 -11.184067 -0.000004 0.000002 -0.000000 9.820262 -0.209750 -4.418476 1.661706 6.067762 -18.356637 0.525572 -1.427745 -22.853811 0.131315 1.341026 -11.184349 0.000001 -0.000002 0.000002 -6.140201 10.187005 -3.793200 0.008403 -1.433448 -6.652087 -43.166833 42.441829 70.007397 0.000104 113.496803 -0.000100 -62.987089 -19.216187 -18.928727 -9.791018 -0.212918 -4.378344 3.871379 -6.233300 63.656325 8.493856 -6.775873 102.876063 2.600027 -5.425008 51.193443 0.000000 0.000002 0.000001 -10.391918 0.105168 -2.349906 3.871382 -6.233299 63.656325 8.493857 -6.775874 102.876063 2.599282 -5.424480 51.193378 -0.000002 -0.000002 0.000000 -10.779231 0.000015 -0.000012 3.871383 -6.233299 63.656325 8.493857 -6.775874 102.876063 2.599434 -5.424591 51.193289 -0.000004 -0.000002 0.000002 -10.577317 -0.175365 2.287345 3.871385 -6.233284 63.656325 8.493858 -6.775849 102.876057 2.600679 -5.425592 51.193504 0.000000 -0.000001 0.000003 -2.570408 -1.245113 2.319031 39.964721 -9.056075 27.148849 -3.518808 -2.031540 2.031567 -6.839515 -22.258965 -45.814221 -3.945263 -2.277740 2.277764 -3.430040 -6.994778 -23.641679 0.000003 0.000003 0.000002 9.633793 -3.273311 -0.000002 -40.445594 16.548198 23.784358 38.826026 5.862777 6.369708 -0.019686 1.157422 -13.657800 -0.183299 -12.185704 8.282303 -0.415856 -0.000003 0.000001 0.000000 -0.000000 0.000000 -9.633804 -3.273300 0.000001 -27.289013 -19.955593 -19.625063 43.349346 -4.999530 -10.249238 -16.032076 -3.920227 21.316360 -0.183300 -12.185699 8.282303 -0.001744 0.000024 0.000000 -0.000000 -0.000000 -0.000000 
0.228206 86.795189 -0.644031 0.885869 -46.936162 -0.488290 0.000010 9.226307 1.577100 4.343359 2.959032 -2.405296 0.000000 16.253996 -0.165599 -0.303657 0.572019 0.977957 0.000000 13.639595 -1.292297 -0.318957 0.591588 0.965994 -0.000000 13.877393 -4.354202 9.307295 3.040790 4.979871 -0.000001 4.339996 0.926900 0.000002 -0.000003 0.000000 -0.000001 4.026630 0.858501 12.060139 23.973735 -4.163510 -0.000002 21.748810 0.000003 0.000001 0.000000 0.000000 3.005700 7.261795 7.955604 0.000001 0.000000 0.000000 -3.005700 7.261795 7.955599 0.000001 0.000000 0.000000 -0.000000 2.030289 2.456199 0.000001 0.000000 0.000000 6.144197 10.186992 -3.793205 0.467507 -1.727319 16.170094 -41.157286 -5.803020 -57.947441 -0.002879 -91.178442 -0.002812 -112.746984 -6.464602 18.108672 2.421025 -1.395537 2.392362 18.600982 5.613087 -13.680357 3.496520 -2.018689 2.018728 12.077342 9.726591 9.523354 4.011411 -2.315983 2.315977 3.387236 2.053777 7.492349 2.095770 -1.210006 1.209981 0.000003 0.000004 0.000004 10.514784 -0.231356 2.264844 0.367745 2.224293 -18.773477 0.520609 2.631065 -22.380682 0.131304 1.341039 -11.184351 2.334325 -0.000001 0.000017 -0.000001 0.000002 -0.000002 10.490778 -0.000018 0.000001 0.367126 2.222465 -18.757477 0.521330 2.632857 -22.396687 0.131315 1.341017 -11.184344 2.752039 -0.000040 0.000021 0.000001 -0.000002 -0.000001 10.240760 -0.046050 -2.314145 0.370035 2.231009 -18.773374 0.516637 2.614333 -22.380838 0.131064 1.350252 -11.184073 -0.000004 -0.000003 -0.000001 9.820265 -0.209731 -4.418472 1.661702 6.067763 -18.356632 0.525572 -1.427747 -22.853808 0.131312 1.341027 -11.184349 -0.000002 -0.000003 0.000000 -6.140200 10.187002 -3.793204 0.002739 -1.450682 -6.776934 -43.374276 42.428114 70.123387 0.000120 113.282574 -0.000116 -62.912709 -19.126352 -18.466562 -9.791014 -0.212911 -4.378342 3.871380 -6.233300 63.656325 8.493857 -6.775874 102.876063 2.600027 -5.425008 51.193446 -0.000001 -0.000002 -0.000000 -10.391914 0.105176 -2.349901 3.871382 -6.233299 63.656325 8.493855 -6.775873 102.876063 2.599282 -5.424477 51.193378 -0.000000 0.000001 -0.000005 -10.779231 -0.000000 -0.000006 3.871382 -6.233299 63.656325 8.493855 -6.775873 102.876063 2.599433 -5.424589 51.193296 0.000001 -0.000001 0.000001 -10.577313 -0.175365 2.287348 3.871385 -6.233284 63.656325 8.493859 -6.775849 102.876057 2.600678 -5.425591 51.193501 0.000001 -0.000001 0.000001 -2.570424 -1.245102 2.319028 39.964721 -9.056074 27.148851 -3.518820 -2.031537 2.031558 -6.839518 -22.258968 -45.814225 -3.945259 -2.277752 2.277766 -3.430037 -6.994784 -23.641680 0.000001 -0.000001 -0.000001 9.633792 -3.273295 -0.000003 -40.520148 16.423504 23.895892 38.992860 5.906169 6.310409 -0.051994 1.023351 -13.702883 -0.183300 -12.185706 8.282309 -0.414295 0.000010 -0.000002 -0.000000 0.000001 -0.000000 -9.633811 -3.273297 0.000001 -27.364118 -19.982664 -19.641184 43.721356 -5.044670 -10.238553 -16.308502 -3.929067 21.281150 -0.183302 -12.185698 8.282302 -0.001725 0.000023 -0.000003 -0.000000 -0.000000 -0.000000 
0.057819 86.681442 -0.784745 0.866219 -46.676458 -0.579884 0.000010 9.226314 1.577101 4.323660 2.861465 -2.475187 -0.000001 16.253988 -0.165599 -0.284611 0.561608 0.950730 -0.000001 13.639597 -1.292298 -0.299725 0.580787 0.939006 0.000001 13.877389 -4.354195 9.312894 3.022020 4.933123 0.000001 4.340012 0.926895 0.000001 0.000001 0.000000 -0.000002 4.026614 0.858501 12.043532 23.827390 -4.150343 -0.000003 21.748810 0.000006 -0.000003 0.000002 0.000000 3.005697 7.261780 7.955608 -0.000003 0.000002 0.000000 -3.005702 7.261795 7.955607 -0.000003 0.000002 0.000000 -0.000003 2.030289 2.456206 -0.000003 0.000002 0.000000 6.144199 10.186995 -3.793198 0.486622 -1.794679 16.099932 -41.393129 -6.034012 -57.630179 -0.004852 -90.910972 -0.004948 -114.082225 -6.961436 16.930171 2.421021 -1.395554 2.392367 18.600982 5.613087 -13.680358 3.496503 -2.018692 2.018726 12.077337 9.726587 9.523358 4.011391 -2.315971 2.315963 3.387236 2.053774 7.492353 2.095770 -1.209994 1.209971 -0.000002 0.000001 0.000004 10.514769 -0.231358 2.264854 0.367747 2.224291 -18.773480 0.520612 2.631071 -22.380686 0.131303 1.341039 -11.184349 2.334340 0.000030 0.000001 -0.000002 0.000001 0.000001 10.490755 -0.000009 0.000008 0.367124 2.222464 -18.757477 0.521333 2.632859 -22.396687 0.131313 1.341014 -11.184346 2.752060 -0.000046 0.000022 -0.000002 0.000002 0.000000 10.240756 -0.046031 -2.314143 0.370036 2.231010 -18.773371 0.516637 2.614338 -22.380839 0.131058 1.350256 -11.184069 0.000001 0.000000 -0.000001 9.820247 -0.209733 -4.418467 1.661702 6.067761 -18.356637 0.525572 -1.427745 -22.853811 0.131310 1.341025 -11.184349 0.000003 0.000003 0.000000 -6.140198 10.187022 -3.793197 -0.024218 -1.562122 -6.887316 -43.749281 42.425071 70.295986 0.000093 113.006211 -0.000098 -62.720896 -19.207627 -17.927814 -9.791018 -0.212918 -4.378330 3.871380 -6.233301 63.656318 8.493855 -6.775873 102.876057 2.600027 -5.425010 51.193443 -0.000000 -0.000001 0.000003 -10.391903 0.105168 -2.349884 3.871382 -6.233300 63.656318 8.493854 -6.775873 102.876057 2.599283 -5.424477 51.193374 0.000000 0.000002 -0.000000 -10.779231 0.000008 0.000003 3.871382 -6.233300 63.656318 8.493855 -6.775873 102.876063 2.599433 -5.424590 51.193296 -0.000001 0.000000 -0.000003 -10.577313 -0.175357 2.287362 3.871385 -6.233284 63.656325 8.493858 -6.775850 102.876057 2.600679 -5.425592 51.193504 -0.000002 -0.000003 0.000007 -2.570423 -1.245111 2.319057 39.964721 -9.056078 27.148856 -3.518805 -2.031540 2.031556 -6.839520 -22.258963 -45.814232 -3.945263 -2.277759 2.277762 -3.430040 -6.994779 -23.641680 0.000002 0.000002 -0.000003 9.633795 -3.273307 0.000001 -40.720003 16.184978 24.067505 39.205853 5.812394 6.290700 -0.053018 0.898572 -13.784947 -0.183300 -12.185707 8.282301 -0.405095 0.000011 -0.000001 0.000000 -0.000000 -0.000000 -9.633805 -3.273296 0.000001 -27.432282 -20.101651 -19.564740 44.216804 -5.228080 -10.228703 -16.714040 -3.944657 21.254625 -0.183302 -12.185699 8.282301 -0.001718 0.000015 -0.000008 0.000000 -0.000000 -0.000000 
